<?xml version="1.0" encoding="UTF-8" standalone="no"?>
<!DOCTYPE svg PUBLIC "-//W3C//DTD SVG 1.1//EN" "http://www.w3.org/Graphics/SVG/1.1/DTD/svg11.dtd">
<svg width="100%" height="100%" viewBox="0 0 100 100" version="1.1" xmlns="http://www.w3.org/2000/svg" xmlns:xlink="http://www.w3.org/1999/xlink" xml:space="preserve" xmlns:serif="http://www.serif.com/" style="fill-rule:evenodd;clip-rule:evenodd;stroke-linejoin:round;stroke-miterlimit:2;">
    <g transform="matrix(0.906379,0,0,0.930476,-1148.47,-1223.41)">
        <g transform="matrix(1.22342,0,0,1.04955,1171.61,672.366)">
            <path d="M159.22,612.125C164.2,612.125 168.238,616.709 168.238,622.365L168.238,704.283C168.238,709.939 164.2,714.523 159.22,714.523L87.075,714.523C82.095,714.523 78.057,709.939 78.057,704.283L78.057,622.365C78.057,616.709 82.095,612.125 87.075,612.125L159.22,612.125Z" style="fill:rgb(20,20,20);fill-opacity:0.5;"/>
        </g>
        <g transform="matrix(1.74587,0,0,1.65817,-393.139,-938.323)">
            <path d="M1007.83,1358.82C1011.32,1358.82 1014.15,1361.72 1014.15,1365.3C1014.15,1366.07 1014.15,1366.86 1014.15,1367.65C1014.15,1369.56 1013.4,1371.4 1012.09,1372.75C1010.77,1374.1 1008.98,1374.86 1007.11,1374.86L957.986,1374.86C956.121,1374.86 954.331,1374.1 953.012,1372.75C951.693,1371.4 950.952,1369.56 950.952,1367.65L950.952,1365.3C950.952,1361.72 953.781,1358.82 957.271,1358.82C969.379,1358.82 995.718,1358.82 1007.83,1358.82Z" style="fill:white;fill-opacity:0.5;"/>
        </g>
        <g transform="matrix(-1.74587,2.08271e-16,-2.59198e-16,-2.0617,3037.67,4223.76)">
            <path d="M1007.83,1358.82C1011.32,1358.82 1014.15,1361.15 1014.15,1364.03L1014.15,1370.82C1014.15,1371.89 1013.63,1372.92 1012.71,1373.68C1011.79,1374.44 1010.54,1374.86 1009.24,1374.86L955.854,1374.86C954.554,1374.86 953.307,1374.44 952.388,1373.68C951.468,1372.92 950.952,1371.89 950.952,1370.82L950.952,1364.03C950.952,1361.15 953.781,1358.82 957.271,1358.82L1007.83,1358.82Z" style="fill:white;fill-opacity:0.25;"/>
        </g>
    </g>
</svg>
