<?xml version="1.0" encoding="UTF-8" standalone="no"?>
<!DOCTYPE svg PUBLIC "-//W3C//DTD SVG 1.1//EN" "http://www.w3.org/Graphics/SVG/1.1/DTD/svg11.dtd">
<svg width="100%" height="100%" viewBox="0 0 100 100" version="1.1" xmlns="http://www.w3.org/2000/svg" xmlns:xlink="http://www.w3.org/1999/xlink" xml:space="preserve" xmlns:serif="http://www.serif.com/" style="fill-rule:evenodd;clip-rule:evenodd;stroke-linejoin:round;stroke-miterlimit:2;">
    <g transform="matrix(0.906379,0,0,0.930476,-888.475,-1353.41)">
        <g transform="matrix(1.22342,0,0,1.04955,884.75,812.08)">
            <path d="M159.22,612.125C164.2,612.125 168.238,616.709 168.238,622.365L168.238,704.283C168.238,709.939 164.2,714.523 159.22,714.523L87.075,714.523C82.095,714.523 78.057,709.939 78.057,704.283L78.057,622.365C78.057,616.709 82.095,612.125 87.075,612.125L159.22,612.125Z" style="fill:rgb(20,20,20);fill-opacity:0.5;"/>
        </g>
        <g transform="matrix(1.33765,0,0,1.30301,46.1863,-476.755)">
            <circle cx="723.827" cy="1523.41" r="12.575" style="fill:white;fill-opacity:0.5;"/>
        </g>
        <g transform="matrix(1.33765,0,0,1.30301,55.6428,-475.518)">
            <path d="M723.15,1522.01C723.15,1524.78 720.286,1527.03 716.758,1527.03C716.199,1527.03 715.642,1526.97 715.102,1526.85L712.284,1529.53L713.09,1526.12C711.383,1525.18 710.366,1523.64 710.366,1522.01C710.366,1519.24 713.23,1516.99 716.758,1516.99C720.286,1516.99 723.15,1519.24 723.15,1522.01Z" style="fill:rgb(41,60,66);"/>
        </g>
        <g transform="matrix(1.43492,0,0,1.39776,28.6723,-619.248)">
            <path d="M723.15,1522.01C723.15,1524.78 720.286,1527.03 716.758,1527.03C716.199,1527.03 715.642,1526.97 715.102,1526.85L712.284,1529.53L713.09,1526.12C711.383,1525.18 710.366,1523.64 710.366,1522.01C710.366,1519.24 713.23,1516.99 716.758,1516.99C720.286,1516.99 723.15,1519.24 723.15,1522.01Z" style="fill:white;"/>
        </g>
    </g>
</svg>
