<?xml version="1.0" encoding="UTF-8" standalone="no"?>
<!DOCTYPE svg PUBLIC "-//W3C//DTD SVG 1.1//EN" "http://www.w3.org/Graphics/SVG/1.1/DTD/svg11.dtd">
<svg width="100%" height="100%" viewBox="0 0 100 100" version="1.1" xmlns="http://www.w3.org/2000/svg" xmlns:xlink="http://www.w3.org/1999/xlink" xml:space="preserve" xmlns:serif="http://www.serif.com/" style="fill-rule:evenodd;clip-rule:evenodd;stroke-linejoin:round;stroke-miterlimit:2;">
    <g transform="matrix(0.906379,0,0,0.930476,-1148.47,-1353.41)">
        <g transform="matrix(1.22342,0,0,1.04955,1171.61,812.08)">
            <path d="M159.22,612.125C164.2,612.125 168.238,616.709 168.238,622.365L168.238,704.283C168.238,709.939 164.2,714.523 159.22,714.523L87.075,714.523C82.095,714.523 78.057,709.939 78.057,704.283L78.057,622.365C78.057,616.709 82.095,612.125 87.075,612.125L159.22,612.125Z" style="fill:rgb(20,20,20);fill-opacity:0.5;"/>
        </g>
        <g transform="matrix(1.10329,0,0,1.07472,366.279,-133.896)">
            <path d="M891.013,1521.86L891.013,1534.14C891.013,1537.53 888.262,1540.28 884.873,1540.28L848.102,1540.28C844.713,1540.28 841.962,1537.53 841.962,1534.14L841.962,1521.86C841.962,1518.47 844.713,1515.72 848.102,1515.72L884.873,1515.72C888.262,1515.72 891.013,1518.47 891.013,1521.86Z" style="fill:white;fill-opacity:0.5;"/>
        </g>
        <g transform="matrix(1.10329,0,0,1.07472,370.564,-129.012)">
            <path d="M891.013,1521.86L891.013,1534.14C891.013,1537.53 888.262,1540.28 884.873,1540.28L848.102,1540.28C844.713,1540.28 841.962,1537.53 841.962,1534.14L841.962,1521.86C841.962,1518.47 844.713,1515.72 848.102,1515.72L884.873,1515.72C888.262,1515.72 891.013,1518.47 891.013,1521.86Z" style="fill:white;fill-opacity:0.25;"/>
        </g>
    </g>
</svg>
