<?xml version="1.0" encoding="UTF-8" standalone="no"?>
<!DOCTYPE svg PUBLIC "-//W3C//DTD SVG 1.1//EN" "http://www.w3.org/Graphics/SVG/1.1/DTD/svg11.dtd">
<svg width="100%" height="100%" viewBox="0 0 100 100" version="1.1" xmlns="http://www.w3.org/2000/svg" xmlns:xlink="http://www.w3.org/1999/xlink" xml:space="preserve" xmlns:serif="http://www.serif.com/" style="fill-rule:evenodd;clip-rule:evenodd;stroke-linecap:round;stroke-linejoin:round;stroke-miterlimit:1.5;">
    <g transform="matrix(1.33333,0,0,1.33333,-1646.34,-1564.82)">
        <g transform="matrix(1.01877,0,0,1.01877,1045.4,857.819)">
            <circle cx="222.677" cy="346.785" r="36.809" style="fill:rgb(100,100,100);fill-opacity:0.5;"/>
        </g>
        <g transform="matrix(1,0,0,0.989268,86.481,11.2169)">
            <g transform="matrix(0.329657,0.333233,-0.320837,0.324317,1222.81,1053.82)">
                <path d="M240.567,316.106L240.567,323.469C240.567,325.5 238.961,327.15 236.984,327.15L203.395,327.15C201.418,327.15 199.812,325.5 199.812,323.469L199.812,316.106C199.812,314.075 201.418,312.425 203.395,312.425L236.984,312.425C238.961,312.425 240.567,314.075 240.567,316.106Z" style="fill:white;"/>
            </g>
            <g transform="matrix(2.41367e-17,0.165635,-0.453732,8.67523e-18,1330.87,1153.34)">
                <path d="M240.567,316.105L240.567,323.47C240.567,325.501 236.001,327.15 230.378,327.15L210.001,327.15C204.378,327.15 199.812,325.501 199.812,323.47L199.812,316.105C199.812,314.074 204.378,312.425 210.001,312.425L230.378,312.425C236.001,312.425 240.567,314.074 240.567,316.105Z" style="fill:white;"/>
            </g>
            <g transform="matrix(1.37526e-16,0.717582,-2.71652,4.44234e-17,2054.48,1049.8)">
                <path d="M240.567,313.49L240.567,326.085C240.567,326.673 238.741,327.15 236.491,327.15L203.888,327.15C201.638,327.15 199.812,326.673 199.812,326.085L199.812,313.49C199.812,312.902 201.638,312.425 203.888,312.425L236.491,312.425C238.741,312.425 240.567,312.902 240.567,313.49Z" style="fill:rgb(152,79,158);stroke:white;stroke-width:1.51px;"/>
            </g>
            <g transform="matrix(1.22686,0,0,0.475392,915.63,1071.88)">
                <path d="M240.567,316.106L240.567,323.469C240.567,325.5 239.934,327.15 239.156,327.15L201.223,327.15C200.445,327.15 199.812,325.5 199.812,323.469L199.812,316.106C199.812,314.075 200.445,312.425 201.223,312.425L239.156,312.425C239.934,312.425 240.567,314.075 240.567,316.106Z" style="fill:white;"/>
            </g>
            <g transform="matrix(0.329143,-0.332714,0.320837,0.324317,1003.66,1200.44)">
                <path d="M240.567,316.106L240.567,323.469C240.567,325.5 238.959,327.15 236.978,327.15L203.4,327.15C201.42,327.15 199.812,325.5 199.812,323.469L199.812,316.106C199.812,314.075 201.42,312.425 203.4,312.425L236.978,312.425C238.959,312.425 240.567,314.075 240.567,316.106Z" style="fill:white;"/>
            </g>
        </g>
    </g>
</svg>
