<?xml version="1.0" encoding="UTF-8" standalone="no"?>
<!DOCTYPE svg PUBLIC "-//W3C//DTD SVG 1.1//EN" "http://www.w3.org/Graphics/SVG/1.1/DTD/svg11.dtd">
<svg width="100%" height="100%" viewBox="0 0 100 100" version="1.1" xmlns="http://www.w3.org/2000/svg" xmlns:xlink="http://www.w3.org/1999/xlink" xml:space="preserve" xmlns:serif="http://www.serif.com/" style="fill-rule:evenodd;clip-rule:evenodd;stroke-linejoin:round;stroke-miterlimit:2;">
    <g transform="matrix(0.906379,0,0,0.930476,-758.475,-1093.41)">
        <g transform="matrix(1.22342,0,0,1.04955,741.322,532.653)">
            <path d="M159.22,612.125C164.2,612.125 168.238,616.709 168.238,622.365L168.238,704.283C168.238,709.939 164.2,714.523 159.22,714.523L87.075,714.523C82.095,714.523 78.057,709.939 78.057,704.283L78.057,622.365C78.057,616.709 82.095,612.125 87.075,612.125L159.22,612.125Z" style="fill:rgb(20,20,20);fill-opacity:0.5;"/>
        </g>
        <g transform="matrix(1.22342,0,0,0.524773,741.322,853.88)">
            <path d="M159.22,612.125C161.612,612.125 163.905,614.283 165.597,618.123C167.288,621.964 168.238,627.173 168.238,632.605L168.238,714.523L78.057,714.523L78.057,632.605C78.057,627.173 79.007,621.964 80.698,618.123C82.39,614.283 84.683,612.125 87.075,612.125L159.22,612.125Z" style="fill:white;fill-opacity:0.75;"/>
        </g>
        <g transform="matrix(-1.22342,-1.45946e-16,2.5624e-17,-0.203817,1042.64,1407.34)">
            <path d="M159.22,612.125C161.612,612.125 163.905,617.68 165.597,627.569C167.288,637.458 168.238,650.87 168.238,664.854L168.238,714.523L78.057,714.523L78.057,664.854C78.057,650.87 79.007,637.458 80.698,627.569C82.39,617.68 84.683,612.125 87.075,612.125C104.354,612.125 141.941,612.125 159.22,612.125Z" style="fill:white;fill-opacity:0.25;"/>
        </g>
        <g transform="matrix(1.22342,0,0,0.320956,741.322,1032.38)">
            <rect x="78.057" y="612.125" width="90.181" height="102.398" style="fill:white;fill-opacity:0.5;"/>
        </g>
    </g>
</svg>
