<?xml version="1.0" encoding="UTF-8" standalone="no"?>
<!DOCTYPE svg PUBLIC "-//W3C//DTD SVG 1.1//EN" "http://www.w3.org/Graphics/SVG/1.1/DTD/svg11.dtd">
<svg width="100%" height="100%" viewBox="0 0 100 100" version="1.1" xmlns="http://www.w3.org/2000/svg" xmlns:xlink="http://www.w3.org/1999/xlink" xml:space="preserve" xmlns:serif="http://www.serif.com/" style="fill-rule:evenodd;clip-rule:evenodd;stroke-linejoin:round;stroke-miterlimit:2;">
    <g transform="matrix(0.906379,0,0,0.930476,-758.475,-1223.41)">
        <g transform="matrix(1.22342,0,0,1.04955,741.322,672.366)">
            <path d="M159.22,612.125C164.2,612.125 168.238,616.709 168.238,622.365L168.238,704.283C168.238,709.939 164.2,714.523 159.22,714.523L87.075,714.523C82.095,714.523 78.057,709.939 78.057,704.283L78.057,622.365C78.057,616.709 82.095,612.125 87.075,612.125L159.22,612.125Z" style="fill:rgb(20,20,20);fill-opacity:0.5;"/>
        </g>
        <g transform="matrix(0.14681,0,0,0.125946,895.969,1285.14)">
            <path d="M123.628,612.125C135.46,612.125 146.806,617.462 155.172,626.961C163.538,636.46 168.238,649.344 168.238,662.778L168.238,662.795C168.238,691.364 147.842,714.523 122.682,714.523C122.677,714.523 122.672,714.523 122.666,714.523C110.835,714.523 99.489,709.187 91.123,699.687C82.757,690.188 78.057,677.304 78.057,663.87C78.057,663.688 78.057,663.506 78.057,663.324C78.057,635.048 98.245,612.125 123.147,612.125L123.628,612.125Z" style="fill:white;fill-opacity:0.5;"/>
        </g>
        <g transform="matrix(0.14681,0,0,0.125946,852.941,1285.14)">
            <path d="M123.162,612.125C135.117,612.125 146.582,617.517 155.036,627.116C163.489,636.714 168.238,649.733 168.238,663.307L168.238,663.324C168.238,676.903 163.487,689.926 155.031,699.527C146.575,709.129 135.106,714.523 123.147,714.523L123.147,714.523C98.245,714.523 78.057,691.601 78.057,663.324C78.057,663.318 78.057,663.313 78.057,663.307C78.057,649.733 82.806,636.714 91.259,627.116C99.713,617.517 111.178,612.125 123.132,612.125L123.162,612.125Z" style="fill:white;fill-opacity:0.5;"/>
        </g>
        <g transform="matrix(0.14681,0,0,0.125946,873.904,1285.01)">
            <path d="M123.147,612.125C148.05,612.125 168.238,635.048 168.238,663.324C168.238,663.324 168.238,663.324 168.238,663.324C168.238,691.601 148.05,714.523 123.147,714.523C123.147,714.523 123.147,714.523 123.147,714.523C98.245,714.523 78.057,691.601 78.057,663.324C78.057,663.324 78.057,663.324 78.057,663.324C78.057,635.048 98.245,612.125 123.147,612.125L123.147,612.125Z" style="fill:white;fill-opacity:0.5;"/>
        </g>
    </g>
</svg>
