<?xml version="1.0" encoding="UTF-8" standalone="no"?>
<!DOCTYPE svg PUBLIC "-//W3C//DTD SVG 1.1//EN" "http://www.w3.org/Graphics/SVG/1.1/DTD/svg11.dtd">
<svg width="100%" height="100%" viewBox="0 0 100 100" version="1.1" xmlns="http://www.w3.org/2000/svg" xmlns:xlink="http://www.w3.org/1999/xlink" xml:space="preserve" xmlns:serif="http://www.serif.com/" style="fill-rule:evenodd;clip-rule:evenodd;stroke-linejoin:round;stroke-miterlimit:2;">
    <g transform="matrix(0.906379,0,0,0.930476,-888.475,-1223.41)">
        <g transform="matrix(1.22342,0,0,1.04955,884.75,672.366)">
            <path d="M159.22,612.125C164.2,612.125 168.238,616.709 168.238,622.365L168.238,704.283C168.238,709.939 164.2,714.523 159.22,714.523L87.075,714.523C82.095,714.523 78.057,709.939 78.057,704.283L78.057,622.365C78.057,616.709 82.095,612.125 87.075,612.125L159.22,612.125Z" style="fill:rgb(20,20,20);fill-opacity:0.5;"/>
        </g>
        <g transform="matrix(0.14681,0,0,0.351915,1050.36,1135.25)">
            <path d="M123.147,612.125C148.05,612.125 168.238,620.329 168.238,630.448C168.238,649.029 168.238,677.619 168.238,696.2C168.238,706.32 148.05,714.523 123.147,714.523L123.147,714.523C98.245,714.523 78.057,706.32 78.057,696.2C78.057,677.619 78.057,649.029 78.057,630.448C78.057,620.329 98.245,612.125 123.147,612.125L123.147,612.125Z" style="fill:white;fill-opacity:0.5;"/>
        </g>
        <g transform="matrix(0.14681,0,0,0.351915,1029,1135.25)">
            <path d="M123.147,612.125C148.05,612.125 168.238,620.329 168.238,630.448C168.238,649.029 168.238,677.619 168.238,696.2C168.238,706.32 148.05,714.523 123.147,714.523L123.147,714.523C98.245,714.523 78.057,706.32 78.057,696.2C78.057,677.619 78.057,649.029 78.057,630.448C78.057,620.329 98.245,612.125 123.147,612.125L123.147,612.125Z" style="fill:white;fill-opacity:0.5;"/>
        </g>
        <g transform="matrix(0.14681,0,0,0.351915,985.254,1135.25)">
            <path d="M123.147,612.125C148.05,612.125 168.238,620.329 168.238,630.448C168.238,649.029 168.238,677.619 168.238,696.2C168.238,706.32 148.05,714.523 123.147,714.523L123.147,714.523C98.245,714.523 78.057,706.32 78.057,696.2C78.057,677.619 78.057,649.029 78.057,630.448C78.057,620.329 98.245,612.125 123.147,612.125L123.147,612.125Z" style="fill:white;fill-opacity:0.5;"/>
        </g>
        <g transform="matrix(0.14681,0,0,0.351915,1006.88,1135.25)">
            <path d="M123.147,612.125C148.05,612.125 168.238,620.329 168.238,630.448C168.238,649.029 168.238,677.619 168.238,696.2C168.238,706.32 148.05,714.523 123.147,714.523L123.147,714.523C98.245,714.523 78.057,706.32 78.057,696.2C78.057,677.619 78.057,649.029 78.057,630.448C78.057,620.329 98.245,612.125 123.147,612.125L123.147,612.125Z" style="fill:white;fill-opacity:0.5;"/>
        </g>
    </g>
</svg>
