<?xml version="1.0" encoding="UTF-8" standalone="no"?>
<!DOCTYPE svg PUBLIC "-//W3C//DTD SVG 1.1//EN" "http://www.w3.org/Graphics/SVG/1.1/DTD/svg11.dtd">
<svg width="100%" height="100%" viewBox="0 0 100 100" version="1.1" xmlns="http://www.w3.org/2000/svg" xmlns:xlink="http://www.w3.org/1999/xlink" xml:space="preserve" xmlns:serif="http://www.serif.com/" style="fill-rule:evenodd;clip-rule:evenodd;stroke-linejoin:round;stroke-miterlimit:2;">
    <g transform="matrix(0.906379,0,0,0.930476,-1018.47,-1223.41)">
        <g transform="matrix(1.22342,0,0,1.04955,1028.18,672.366)">
            <path d="M159.22,612.125C164.2,612.125 168.238,616.709 168.238,622.365L168.238,704.283C168.238,709.939 164.2,714.523 159.22,714.523L87.075,714.523C82.095,714.523 78.057,709.939 78.057,704.283L78.057,622.365C78.057,616.709 82.095,612.125 87.075,612.125L159.22,612.125Z" style="fill:rgb(20,20,20);fill-opacity:0.5;"/>
        </g>
        <g transform="matrix(1.46712,0,0,1.53583,-85.4309,-774.147)">
            <path d="M843.914,1389.15L851.414,1401.15L836.415,1401.15L843.914,1389.15Z" style="fill:white;fill-opacity:0.5;"/>
        </g>
        <g transform="matrix(-1.46712,1.75017e-16,-1.93085e-16,-1.53583,2406.07,3511.26)">
            <path d="M843.914,1389.15L851.414,1401.15L836.415,1401.15L843.914,1389.15Z" style="fill:white;fill-opacity:0.5;"/>
        </g>
        <g transform="matrix(-1.46712,1.75017e-16,-1.93085e-16,-1.53583,2436.38,3511.38)">
            <path d="M843.914,1389.15L851.414,1401.15L836.415,1401.15L843.914,1389.15Z" style="fill:white;fill-opacity:0.5;"/>
        </g>
        <g transform="matrix(1.46712,0,0,1.53583,-54.8908,-774.023)">
            <path d="M843.914,1389.15L851.414,1401.15L836.415,1401.15L843.914,1389.15Z" style="fill:white;fill-opacity:0.5;"/>
        </g>
    </g>
</svg>
