<?xml version="1.0" encoding="UTF-8" standalone="no"?>
<!DOCTYPE svg PUBLIC "-//W3C//DTD SVG 1.1//EN" "http://www.w3.org/Graphics/SVG/1.1/DTD/svg11.dtd">
<svg width="100%" height="100%" viewBox="0 0 100 100" version="1.1" xmlns="http://www.w3.org/2000/svg" xmlns:xlink="http://www.w3.org/1999/xlink" xml:space="preserve" xmlns:serif="http://www.serif.com/" style="fill-rule:evenodd;clip-rule:evenodd;stroke-linejoin:round;stroke-miterlimit:2;">
    <g transform="matrix(0.906379,0,0,0.930476,-758.475,-1353.41)">
        <g transform="matrix(1.22342,0,0,1.04955,741.322,812.08)">
            <path d="M159.22,612.125C164.2,612.125 168.238,616.709 168.238,622.365L168.238,704.283C168.238,709.939 164.2,714.523 159.22,714.523L87.075,714.523C82.095,714.523 78.057,709.939 78.057,704.283L78.057,622.365C78.057,616.709 82.095,612.125 87.075,612.125L159.22,612.125Z" style="fill:rgb(20,20,20);fill-opacity:0.5;"/>
        </g>
        <g transform="matrix(1.10329,0,0,0.878435,221.62,167.659)">
            <rect x="569.934" y="1513.75" width="37.668" height="24.771" style="fill:white;fill-opacity:0.5;"/>
        </g>
        <g transform="matrix(1.10329,0,0,1.07472,224.771,-130.922)">
            <g transform="matrix(12.3371,0,0,12.3371,597.626,1529.46)">
            </g>
            <text x="574.124px" y="1529.46px" style="font-family:'HiraMaruProN-W4', 'Hiragino Maru Gothic ProN', sans-serif;font-size:12.337px;fill:rgb(41,60,66);stroke:rgb(41,60,66);stroke-width:1px;">text</text>
        </g>
        <g transform="matrix(1.10329,0,0,1.07472,265.189,-130.922)">
            <g transform="matrix(12.3371,0,0,12.3371,597.626,1529.46)">
            </g>
            <text x="574.124px" y="1529.46px" style="font-family:'HiraMaruProN-W4', 'Hiragino Maru Gothic ProN', sans-serif;font-size:12.337px;fill:white;stroke:white;stroke-width:1px;">text</text>
        </g>
    </g>
</svg>
