<?xml version="1.0" encoding="UTF-8" standalone="no"?>
<!DOCTYPE svg PUBLIC "-//W3C//DTD SVG 1.1//EN" "http://www.w3.org/Graphics/SVG/1.1/DTD/svg11.dtd">
<svg width="100%" height="100%" viewBox="0 0 100 100" version="1.1" xmlns="http://www.w3.org/2000/svg" xmlns:xlink="http://www.w3.org/1999/xlink" xml:space="preserve" xmlns:serif="http://www.serif.com/" style="fill-rule:evenodd;clip-rule:evenodd;stroke-linejoin:round;stroke-miterlimit:2;">
    <g transform="matrix(1.33333,0,0,1.33333,-1513,-1564.82)">
        <g transform="matrix(1.01877,0,0,1.01877,945.397,857.819)">
            <circle cx="222.677" cy="346.785" r="36.809" style="fill:rgb(100,100,100);fill-opacity:0.5;"/>
        </g>
        <g>
            <g transform="matrix(0.8588,0,0,0.475392,989.635,1044.72)">
                <path d="M240.567,316.106L240.567,323.469C240.567,325.5 239.654,327.15 238.529,327.15L201.85,327.15C200.725,327.15 199.812,325.5 199.812,323.469L199.812,316.106C199.812,314.075 200.725,312.425 201.85,312.425L238.529,312.425C239.654,312.425 240.567,314.075 240.567,316.106Z" style="fill:white;"/>
            </g>
            <g transform="matrix(0.8588,0,0,0.475392,989.635,1058.61)">
                <path d="M240.567,316.106L240.567,323.469C240.567,325.5 239.654,327.15 238.529,327.15L201.85,327.15C200.725,327.15 199.812,325.5 199.812,323.469L199.812,316.106C199.812,314.075 200.725,312.425 201.85,312.425L238.529,312.425C239.654,312.425 240.567,314.075 240.567,316.106Z" style="fill:white;"/>
            </g>
            <g transform="matrix(0.8588,0,0,0.475392,989.635,1073.45)">
                <path d="M240.567,316.106L240.567,323.469C240.567,325.5 239.654,327.15 238.529,327.15L201.85,327.15C200.725,327.15 199.812,325.5 199.812,323.469L199.812,316.106C199.812,314.075 200.725,312.425 201.85,312.425L238.529,312.425C239.654,312.425 240.567,314.075 240.567,316.106Z" style="fill:white;"/>
            </g>
            <g transform="matrix(0.813485,0,0,0.813485,-309.974,190.579)">
                <circle cx="1798.12" cy="1236.86" r="5.532" style="fill:white;"/>
            </g>
            <g transform="matrix(0.813485,0,0,0.813485,-309.974,204.465)">
                <circle cx="1798.12" cy="1236.86" r="5.532" style="fill:white;"/>
            </g>
            <g transform="matrix(0.813485,0,0,0.813485,-309.974,219.308)">
                <circle cx="1798.12" cy="1236.86" r="5.532" style="fill:white;"/>
            </g>
        </g>
    </g>
</svg>
